<svg width="60" height="60" viewBox="0 0 60 60" fill="none" xmlns="http://www.w3.org/2000/svg">
<path d="M23.533 19.6078V21.5929H18.5175V23.6351H22.9711V25.5774H18.5175V27.6196H23.533V29.6047H16.4102V19.6078H23.533Z" fill="black"/>
<path d="M25.0811 29.6047V19.6078H29.5627C30.5274 19.6078 31.347 19.9505 32.0213 20.636C32.705 21.3215 33.0469 22.1308 33.0469 23.0639C33.0469 23.7113 32.8643 24.3111 32.499 24.8633C32.1431 25.4155 31.6701 25.8106 31.08 26.0487L33.1874 29.6047H30.799L28.8462 26.32H27.1884V29.6047H25.0811ZM29.5627 24.4634C29.9655 24.4634 30.3073 24.3206 30.5883 24.035C30.8693 23.7494 31.0098 23.4019 31.0098 22.9925C31.0098 22.5831 30.8693 22.2403 30.5883 21.9642C30.3073 21.6786 29.9655 21.5358 29.5627 21.5358H27.1884V24.4634H29.5627Z" fill="black"/>
<path d="M35.2996 21.0074C36.283 20.0077 37.4678 19.5078 38.854 19.5078C39.8562 19.5078 40.7506 19.7744 41.5374 20.3076C42.3335 20.8407 42.9329 21.5596 43.3357 22.4641L41.3266 23.0496C41.0925 22.5735 40.7553 22.207 40.3151 21.9499C39.8749 21.6833 39.3879 21.55 38.854 21.55C38.0204 21.55 37.3226 21.8452 36.7607 22.4355C36.2081 23.0258 35.9318 23.7541 35.9318 24.6205C35.9318 25.4869 36.2081 26.2153 36.7607 26.8056C37.3226 27.3864 38.0204 27.6767 38.854 27.6767C39.4534 27.6767 39.9967 27.5149 40.4837 27.1912C40.9801 26.8675 41.3407 26.4009 41.5655 25.7916L38.9102 25.8059L38.8821 23.9922H43.6166V24.8062C43.6166 26.2343 43.1624 27.4102 42.2539 28.3337C41.3454 29.2572 40.2121 29.719 38.854 29.719C37.4678 29.719 36.283 29.2239 35.2996 28.2337C34.3161 27.234 33.8244 26.0296 33.8244 24.6205C33.8244 23.2114 34.3161 22.007 35.2996 21.0074Z" fill="black"/>
<path d="M16.4102 40.9619V30.8516H20.4323C21.94 30.8516 23.2201 31.3412 24.2724 32.3206C25.3349 33.2999 25.8712 34.4953 25.8813 35.9067C25.8813 35.9163 25.8813 35.9307 25.8813 35.9499C25.8813 37.3518 25.3551 38.5375 24.3028 39.5073C23.2504 40.477 21.9603 40.9619 20.4323 40.9619H16.4102ZM18.702 38.9456H20.4323C21.3936 38.9456 22.1677 38.6576 22.7546 38.0815C23.3516 37.5054 23.6501 36.7805 23.6501 35.9067C23.6501 35.0234 23.3516 34.2985 22.7546 33.732C22.1576 33.1559 21.3835 32.8679 20.4323 32.8679H18.702V38.9456Z" fill="#333333"/>
<path d="M28.0988 34.3225C28.9083 33.564 29.8797 33.1847 31.013 33.1847C31.9945 33.1847 32.8647 33.4824 33.6236 34.0777C34.3826 34.6729 34.8632 35.4219 35.0656 36.3244C35.1364 36.6124 35.1718 36.8909 35.1718 37.1597C35.1718 37.419 35.1415 37.6686 35.0807 37.9086H29.0399C29.1613 38.3311 29.3991 38.6576 29.7532 38.888C30.1074 39.1088 30.5273 39.2192 31.013 39.2192C31.782 39.2192 32.4145 39.0032 32.9103 38.5711L34.8227 39.0896C34.509 39.6849 33.9879 40.165 33.2594 40.5298C32.5308 40.8851 31.782 41.0627 31.013 41.0627C29.8595 41.0627 28.878 40.6787 28.0685 39.9105C27.2691 39.1328 26.8694 38.2063 26.8694 37.1309C26.8694 36.0268 27.2792 35.0906 28.0988 34.3225ZM29.0399 36.3244H32.9406C32.8192 35.9595 32.5865 35.6523 32.2424 35.4027C31.8984 35.153 31.4835 35.0282 30.9978 35.0282C30.5121 35.0282 30.0922 35.153 29.7381 35.4027C29.394 35.6523 29.1613 35.9595 29.0399 36.3244Z" fill="#333333"/>
<path d="M35.3294 40.9475L37.7731 37.1309L35.3294 33.3143H37.7579L39.473 35.9787L41.1881 33.3143H43.6166L41.173 37.1309L43.6166 40.9475H41.1881L39.473 38.2831L37.7579 40.9475H35.3294Z" fill="#333333"/>
<path fill-rule="evenodd" clip-rule="evenodd" d="M11.5385 48.9136L30.3077 56.5098L48.9744 48.503L56.4615 29.7177L48.4615 11.0351L29.6923 3.54149L11.0256 11.5483L3.53846 30.3336L11.5385 48.9136ZM30.3077 60C30.1026 60 29.8974 60 29.6923 59.8974L9.58974 51.7879C9.17949 51.5825 8.8718 51.2746 8.66667 50.864L0.153846 30.9495C-0.0512821 30.5389 -0.0512821 30.1283 0.153846 29.6151L8.25641 9.59795C8.46154 9.18734 8.76923 8.87939 9.17949 8.67408L29.0769 0.153978C29.4872 -0.0513259 29.8974 -0.0513259 30.4103 0.153978L50.5128 8.26347C50.8205 8.36613 51.1282 8.67408 51.3333 9.08469L59.8462 28.9991C60.0513 29.4098 60.0513 29.8204 59.8462 30.3336L51.7436 50.4534C51.5385 50.864 51.2308 51.1719 50.8205 51.3772L30.9231 59.8974C30.8205 60 30.5128 60 30.3077 60Z" fill="black"/>
</svg>
