<svg width="60" height="60" viewBox="0 0 60 60" fill="none" xmlns="http://www.w3.org/2000/svg">
<path fill-rule="evenodd" clip-rule="evenodd" d="M11.5385 48.9136L30.3077 56.5098L48.9744 48.503L56.4615 29.7177L48.4615 11.0351L29.6923 3.54149L11.0256 11.5483L3.53846 30.3336L11.5385 48.9136ZM30.3077 60C30.1026 60 29.8974 60 29.6923 59.8974L9.58974 51.7879C9.17949 51.5825 8.8718 51.2746 8.66667 50.864L0.153846 30.9495C-0.0512821 30.5389 -0.0512821 30.1283 0.153846 29.6151L8.25641 9.59795C8.46154 9.18734 8.76923 8.87939 9.17949 8.67408L29.0769 0.153978C29.4872 -0.0513259 29.8974 -0.0513259 30.4103 0.153978L50.5128 8.26347C50.8205 8.36613 51.1282 8.67408 51.3333 9.08469L59.8462 28.9991C60.0513 29.4098 60.0513 29.8204 59.8462 30.3336L51.7436 50.4534C51.5385 50.864 51.2308 51.1719 50.8205 51.3772L30.9231 59.8974C30.8205 60 30.5128 60 30.3077 60Z" fill="black"/>
<path d="M29.5 3.5L11 11.5L3.5 30.5L11.5 49L30.5 56.5L49 48.5L56.5 30L48.5 11L29.5 3.5Z" fill="white"/>
<path d="M23.1229 19.1V21.0851H18.1074V23.1273H22.5609V25.0696H18.1074V27.1118H23.1229V29.0969H16V19.1H23.1229Z" fill="black"/>
<path d="M24.6709 29.0969V19.1H29.1526C30.1173 19.1 30.9368 19.4427 31.6112 20.1282C32.2949 20.8137 32.6367 21.623 32.6367 22.5561C32.6367 23.2035 32.4541 23.8033 32.0888 24.3555C31.7329 24.9077 31.2599 25.3028 30.6699 25.5409L32.7772 29.0969H30.3889L28.4361 25.8122H26.7783V29.0969H24.6709ZM29.1526 23.9556C29.5553 23.9556 29.8972 23.8128 30.1782 23.5272C30.4591 23.2416 30.5996 22.894 30.5996 22.4846C30.5996 22.0752 30.4591 21.7325 30.1782 21.4564C29.8972 21.1708 29.5553 21.028 29.1526 21.028H26.7783V23.9556H29.1526Z" fill="black"/>
<path d="M34.8894 20.4995C35.8729 19.4998 37.0577 19 38.4438 19C39.446 19 40.3405 19.2666 41.1272 19.7998C41.9233 20.3329 42.5228 21.0518 42.9255 21.9562L40.9165 22.5418C40.6823 22.0657 40.3451 21.6992 39.9049 21.4421C39.4647 21.1755 38.9777 21.0422 38.4438 21.0422C37.6103 21.0422 36.9125 21.3374 36.3505 21.9277C35.7979 22.518 35.5216 23.2463 35.5216 24.1127C35.5216 24.9791 35.7979 25.7075 36.3505 26.2978C36.9125 26.8785 37.6103 27.1689 38.4438 27.1689C39.0433 27.1689 39.5865 27.0071 40.0735 26.6834C40.5699 26.3597 40.9305 25.8931 41.1553 25.2838L38.5 25.2981L38.4719 23.4843H43.2065V24.2984C43.2065 25.7265 42.7522 26.9023 41.8437 27.8259C40.9352 28.7494 39.8019 29.2112 38.4438 29.2112C37.0577 29.2112 35.8729 28.7161 34.8894 27.7259C33.906 26.7262 33.4143 25.5218 33.4143 24.1127C33.4143 22.7036 33.906 21.4992 34.8894 20.4995Z" fill="black"/>
<path d="M16 40.4541V30.3438H20.0222C21.5299 30.3438 22.8099 30.8334 23.8622 31.8128C24.9247 32.7921 25.461 33.9875 25.4711 35.3989C25.4711 35.4085 25.4711 35.4229 25.4711 35.4421C25.4711 36.8439 24.9449 38.0297 23.8926 38.9995C22.8403 39.9692 21.5501 40.4541 20.0222 40.4541H16ZM18.2919 38.4378H20.0222C20.9835 38.4378 21.7576 38.1497 22.3444 37.5737C22.9414 36.9976 23.2399 36.2727 23.2399 35.3989C23.2399 34.5156 22.9414 33.7907 22.3444 33.2242C21.7474 32.6481 20.9734 32.3601 20.0222 32.3601H18.2919V38.4378Z" fill="#333333"/>
<path d="M27.6887 33.8147C28.4982 33.0562 29.4696 32.6769 30.6029 32.6769C31.5844 32.6769 32.4546 32.9746 33.2135 33.5698C33.9724 34.1651 34.453 34.914 34.6554 35.8166C34.7262 36.1046 34.7617 36.3831 34.7617 36.6519C34.7617 36.9112 34.7313 37.1608 34.6706 37.4008H28.6297C28.7511 37.8233 28.9889 38.1497 29.3431 38.3802C29.6972 38.601 30.1172 38.7114 30.6029 38.7114C31.3719 38.7114 32.0043 38.4954 32.5001 38.0633L34.4126 38.5818C34.0989 39.1771 33.5778 39.6572 32.8492 40.022C32.1207 40.3773 31.3719 40.5549 30.6029 40.5549C29.4493 40.5549 28.4678 40.1708 27.6583 39.4027C26.8589 38.625 26.4592 37.6985 26.4592 36.6231C26.4592 35.5189 26.869 34.5828 27.6887 33.8147ZM28.6297 35.8166H32.5305C32.409 35.4517 32.1763 35.1445 31.8323 34.8948C31.4882 34.6452 31.0734 34.5204 30.5877 34.5204C30.102 34.5204 29.6821 34.6452 29.3279 34.8948C28.9839 35.1445 28.7511 35.4517 28.6297 35.8166Z" fill="#333333"/>
<path d="M34.9192 40.4397L37.3629 36.6231L34.9192 32.8065H37.3477L39.0629 35.4709L40.778 32.8065H43.2065L40.7628 36.6231L43.2065 40.4397H40.778L39.0629 37.7753L37.3477 40.4397H34.9192Z" fill="#333333"/>
</svg>
